# xmcd CD database file
#
# Track frame offsets:
#	150
#	35984
#	73031
#	108790
#	144139
#	180180
#
# Disc length: 2879 seconds
#
# Revision: 0
# Processed by: cddbd v1.5.2PL0 Copyright (c) Steve Scherf et al.
# Submitted via: CDex 1.70beta2
#
DISCID=480b3d06
DTITLE=Atlantic Bretonia - Klangbotschaften der Wellen
DYEAR=1900
DGENRE=New Age
TTITLE0=Bretonia
TTITLE1=Bon Jour
TTITLE2=Bon Soir
TTITLE3=Merci
TTITLE4=Solumo
TTITLE5=Bon Soir
EXTD=
EXTT0=
EXTT1=
EXTT2=
EXTT3=
EXTT4=
EXTT5=
PLAYORDER=
